<?xml version="1.0" encoding="UTF-8"?>
<svg id="_レイヤー_1" data-name="レイヤー_1" xmlns="http://www.w3.org/2000/svg" version="1.1" viewBox="0 0 24 24">
  <!-- Generator: Adobe Illustrator 29.4.0, SVG Export Plug-In . SVG Version: 2.1.0 Build 152)  -->
  <defs>
    <style>
      .st0 {
        fill: #fff;
      }

      .st1 {
        fill: #f5f7fe;
      }

      .st2 {
        fill: #286699;
      }

      .st3 {
        fill: #e3a827;
      }

      .st4 {
        fill: none;
        stroke: #e3a827;
        stroke-linecap: round;
        stroke-linejoin: round;
        stroke-width: 3px;
      }
    </style>
  </defs>
  <g>
    <path class="st1" d="M12,23.1C5.9,23.1.9,18.1.9,12S5.9.9,12,.9s11.1,5,11.1,11.1-5,11.1-11.1,11.1Z"/>
    <path class="st2" d="M12,1.8c5.6,0,10.2,4.6,10.2,10.2s-4.6,10.2-10.2,10.2S1.8,17.6,1.8,12,6.4,1.8,12,1.8M12,0C5.4,0,0,5.4,0,12s5.4,12,12,12,12-5.4,12-12S18.6,0,12,0h0Z"/>
  </g>
  <g>
    <path class="st4" d="M9.3,6.3c0,2.6,2,4.7,4.3,4.8,2.4,0,4.3-2.1,4.3-4.8"/>
    <g>
      <path class="st0" d="M8.2,6.3c0-.6.5-1.1,1.1-1.1.6,0,1.1.5,1.1,1.1,0,.6-.5,1.1-1.1,1.1-.6,0-1.1-.5-1.1-1.1Z"/>
      <path class="st3" d="M8,6.3c0,.7.6,1.3,1.3,1.3.7,0,1.3-.6,1.3-1.3,0-.7-.6-1.3-1.3-1.3s-1.3.6-1.3,1.3c0,.7,0-.7,0,0ZM10.3,6.2c0,.5-.4,1-1,1-.5,0-1-.4-1-1,0-.5.4-1,1-1,.5,0,1,.4,1,1,0,.5,0-.5,0,0Z"/>
    </g>
    <g>
      <path class="st0" d="M19,6.3c0-.6-.5-1.1-1.1-1.1-.6,0-1.1.5-1.1,1.1,0,.6.5,1.1,1.1,1.1.6,0,1.1-.5,1.1-1.1Z"/>
      <path class="st3" d="M19.2,6.3c0,.7-.6,1.3-1.3,1.3-.7,0-1.3-.6-1.3-1.3,0-.7.6-1.3,1.3-1.3.7,0,1.3.6,1.3,1.3,0,.7,0-.7,0,0ZM16.9,6.3c0,.5.4,1,1,1,.5,0,1-.4,1-1,0-.5-.4-1-1-1-.5,0-1,.4-1,1,0,.5,0-.5,0,0Z"/>
    </g>
  </g>
  <g>
    <path class="st4" d="M5,11.2c0,2.6,2,4.7,4.3,4.8,2.4,0,4.3-2.1,4.3-4.8"/>
    <g>
      <path class="st0" d="M3.8,11.2c0-.6.5-1.1,1.1-1.1.6,0,1.1.5,1.1,1.1,0,.6-.5,1.1-1.1,1.1-.6,0-1.1-.5-1.1-1.1Z"/>
      <path class="st3" d="M3.7,11.2c0,.7.6,1.3,1.3,1.3.7,0,1.3-.6,1.3-1.3,0-.7-.6-1.3-1.3-1.3s-1.3.6-1.3,1.3c0,.7,0-.7,0,0ZM5.9,11.2c0,.5-.4,1-1,1-.5,0-1-.4-1-1,0-.5.4-1,1-1,.5,0,1,.4,1,1,0,.5,0-.5,0,0Z"/>
    </g>
    <g>
      <path class="st0" d="M14.7,11.2c0-.6-.5-1.1-1.1-1.1-.6,0-1.1.5-1.1,1.1,0,.6.5,1.1,1.1,1.1.6,0,1.1-.5,1.1-1.1Z"/>
      <path class="st3" d="M14.8,11.2c0,.7-.6,1.3-1.3,1.3s-1.3-.6-1.3-1.3c0-.7.6-1.3,1.3-1.3.7,0,1.3.6,1.3,1.3,0,.7,0-.7,0,0ZM12.6,11.2c0,.5.4,1,1,1,.5,0,1-.4,1-1,0-.5-.4-1-1-1-.5,0-1,.4-1,1,0,.5,0-.5,0,0Z"/>
    </g>
  </g>
  <line class="st4" x1="9.2" y1="16.2" x2="9.2" y2="19.8"/>
</svg>