<?xml version="1.0" encoding="UTF-8" standalone="no"?><!DOCTYPE svg PUBLIC "-//W3C//DTD SVG 1.1//EN" "http://www.w3.org/Graphics/SVG/1.1/DTD/svg11.dtd"><svg width="100%" height="100%" viewBox="0 0 20 20" version="1.1" xmlns="http://www.w3.org/2000/svg" xmlns:xlink="http://www.w3.org/1999/xlink" xml:space="preserve" xmlns:serif="http://www.serif.com/" style="fill-rule:evenodd;clip-rule:evenodd;stroke-linejoin:round;stroke-miterlimit:2;"><path d="M8.976,7.173l-2.12,2.12l-4.461,-5.092l1.489,-1.489l5.092,4.461Z" style="fill:#dba633;"/><path d="M1.178,1.433l5.979,0.045l-5.934,5.934l-0.045,-5.979Z" style="fill:#dba633;"/><path d="M12.985,9.293l-2.12,-2.12l5.092,-4.461l1.489,1.489l-4.461,5.092Z" style="fill:#dba633;"/><path d="M18.725,1.495l-0.045,5.979l-5.934,-5.934l5.979,-0.045Z" style="fill:#dba633;"/><path d="M10.976,13.231l2.12,-2.12l4.461,5.092l-1.489,1.489l-5.092,-4.461Z" style="fill:#dba633;"/><path d="M18.727,18.909l-5.979,-0.045l5.934,-5.934l0.045,5.979Z" style="fill:#dba633;"/><path d="M6.966,11.111l2.12,2.12l-5.092,4.461l-1.489,-1.489l4.461,-5.092Z" style="fill:#dba633;"/><path d="M1.226,18.909l0.045,-5.979l5.934,5.934l-5.979,0.045Z" style="fill:#dba633;"/></svg>