<?xml version="1.0" encoding="UTF-8"?>
<svg id="_レイヤー_1" data-name="レイヤー_1" xmlns="http://www.w3.org/2000/svg" version="1.1" viewBox="0 0 148.9 24">
  <!-- Generator: Adobe Illustrator 29.8.1, SVG Export Plug-In . SVG Version: 2.1.1 Build 2)  -->
  <defs>
    <style>
      .st0 {
        fill: #fff;
      }

      .st1 {
        stroke-width: 2.4px;
      }

      .st1, .st2 {
        fill: none;
        stroke: #e3a827;
        stroke-linecap: round;
        stroke-linejoin: round;
      }

      .st2 {
        stroke-width: 2.9px;
      }

      .st3 {
        fill: #286699;
      }

      .st4 {
        fill: #e3a827;
      }
    </style>
  </defs>
  <g>
    <path class="st3" d="M26.1,18.8V5.2c0-.5.2-.7.7-.7h4.1c4,0,6.1,1.8,6.1,5.3s-2.1,5.3-6.1,5.3h-2v3.9c0,.5-.2.7-.7.7h-1.4c-.5,0-.7-.2-.7-.7ZM31,12.5c2.1,0,3.1-.9,3.1-2.8s-1-2.8-3.1-2.8h-2.1v5.5h2.1Z"/>
    <path class="st3" d="M38.6,18.8V5.2c0-.5.2-.7.7-.7h1.3c.5,0,.7.2.7.7v3.8c.8-.6,1.9-1,3.1-1,2.6,0,3.9,1.5,3.9,4.6v6.2c0,.5-.2.7-.7.7h-1.3c-.5,0-.7-.2-.7-.7v-5.9c0-1.8-.6-2.5-1.9-2.5s-1.7.3-2.3.8v7.6c0,.5-.2.7-.7.7h-1.3c-.5,0-.7-.2-.7-.7Z"/>
    <path class="st3" d="M49.3,23.2c-.6-.2-.7-.4-.7-.9v-.8c0-.5.1-.6.5-.6s.6.1,1,.1c1.2,0,2.2-.6,3.1-2-1.8-2.9-3.8-8.5-3.8-10s.2-.7.7-.7h1.3c.6,0,.8.2.9.7.5,2.7,1.5,5.6,2.5,7.6,1-2,2-4.9,2.5-7.6,0-.5.3-.7.9-.7h1.2c.5,0,.7.2.7.7,0,1.5-1.8,6.6-3.6,9.7-1.7,3-3.3,4.7-5.9,4.7s-.9,0-1.3-.2Z"/>
    <path class="st3" d="M61.3,16.5V5.2c0-.5.2-.7.7-.7h1.3c.5,0,.7.2.7.7v11c0,.9.3,1.2,1,1.2s.4,0,.5,0c.4,0,.5.2.5.6v.8c0,.5-.2.7-.7.8-.3,0-.7.1-1,.1-2.1,0-3-1-3-3.3Z"/>
    <path class="st3" d="M66.7,13.9c0-4,1.7-5.9,5.3-5.9s5.3,1.9,5.3,5.9-1.7,5.9-5.3,5.9-5.3-1.9-5.3-5.9ZM74.4,13.9c0-2.5-.7-3.5-2.5-3.5s-2.5,1-2.5,3.5.7,3.5,2.5,3.5,2.5-1,2.5-3.5Z"/>
  </g>
  <g>
    <path class="st3" d="M80.9,19c-1.3-2.6-3.2-11.5-3.2-13.9s.2-.7.7-.7h1.3c.6,0,.8.2.9.7.5,3.9,1.2,7.8,2,11.1h0c.9-3.1,1.9-7.2,2.5-11.1,0-.5.3-.7.9-.7h1.1c.6,0,.9.2.9.7.6,3.9,1.6,8,2.5,11.1h0c.8-3.3,1.6-7.2,2.1-11.1,0-.5.3-.7.9-.7h1.1c.5,0,.7.2.7.7,0,2.4-1.9,11.3-3.2,13.9-.2.4-.4.6-1,.6h-1.1c-.6,0-.8-.2-1-.6-.9-2-2.1-6.1-2.6-9.5h0c-.5,3.4-1.7,7.5-2.6,9.5-.2.4-.5.6-1,.6h-1.1c-.6,0-.8-.2-1-.6Z"/>
    <path class="st3" d="M95.8,14c0-3.9,1.9-6,5.4-6s4.5,1.4,4.5,3.5-1.3,3-3.8,3.2l-3.2.2c.1,1.7,1,2.5,3,2.5s1.9-.2,2.8-.5c.6-.2,1-.1,1,.4v.9c0,.4-.2.7-.7.9-.8.3-2.2.6-3.4.6-3.7,0-5.5-1.8-5.5-5.8ZM100.9,12.9c1.5-.1,2.2-.5,2.2-1.4s-.7-1.4-1.8-1.4-2.5,1-2.6,2.9l2.3-.2Z"/>
    <path class="st3" d="M106.6,16.5c0-2.5,2-3.6,6.9-3.7h0c0-1.7-.8-2.5-2.5-2.5s-1.6.2-2.5.5c-.6.2-.9.1-1-.4l-.2-.8c-.1-.5,0-.7.4-.9.8-.4,2.5-.7,3.8-.7,3.1,0,4.7,1.6,4.7,4.6v6.2c0,.5-.2.7-.7.7h-1c-.5,0-.7-.2-.7-.8v-.3c-.9.8-2.1,1.3-3.6,1.3-2.3,0-3.6-1.3-3.6-3.3ZM113.5,16.8v-2.1c-3.2,0-4.2.5-4.2,1.7s.6,1.3,1.7,1.3,1.9-.3,2.5-.9Z"/>
    <path class="st3" d="M121,19c-1.8-3-3.8-8.5-3.8-10.1s.2-.7.7-.7h1.3c.6,0,.8.2.9.7.5,2.7,1.5,5.6,2.5,7.6,1-2,2-4.9,2.5-7.6,0-.5.3-.7.9-.7h1.2c.5,0,.7.2.7.7,0,1.5-2,7.1-3.8,10.1-.2.4-.5.6-1,.6h-.9c-.5,0-.8-.2-1-.6Z"/>
    <path class="st3" d="M128.6,14c0-3.9,1.9-6,5.4-6s4.5,1.4,4.5,3.5-1.3,3-3.8,3.2l-3.2.2c.1,1.7,1,2.5,3,2.5s1.9-.2,2.8-.5c.6-.2,1-.1,1,.4v.9c0,.4-.2.7-.7.9-.8.3-2.2.6-3.4.6-3.7,0-5.5-1.8-5.5-5.8ZM133.6,12.9c1.5-.1,2.2-.5,2.2-1.4s-.7-1.4-1.8-1.4-2.5,1-2.6,2.9l2.3-.2Z"/>
    <path class="st3" d="M140.1,18.8v-9.9c0-.5.2-.7.7-.7h1c.5,0,.7.2.7.7v.5c.8-.7,2.4-1.4,3.3-1.4s.8.2.8.7v1.5c0,.5-.2.8-.8.8-1.2,0-2.4,0-3.1-.1v7.9c0,.5-.2.7-.7.7h-1.3c-.5,0-.7-.2-.7-.7Z"/>
  </g>
  <g>
    <path class="st2" d="M11.1,5.1c0,3,2.5,5.6,5.6,5.6,3.1,0,5.6-2.5,5.6-5.6"/>
    <g>
      <path class="st0" d="M10.1,5.1c0-.6.5-1.1,1.1-1.1s1.1.5,1.1,1.1c0,.6-.5,1.1-1.1,1.1-.6,0-1.1-.5-1.1-1.1Z"/>
      <path class="st4" d="M9.9,5.1c0,.7.6,1.2,1.2,1.2s1.2-.6,1.2-1.2c0-.7-.6-1.2-1.2-1.2-.7,0-1.2.6-1.2,1.2,0,.7,0-.7,0,0ZM12.1,5.1c0,.5-.4.9-.9.9-.5,0-.9-.4-.9-.9,0-.5.4-.9.9-.9.5,0,.9.4.9.9,0,.5,0-.5,0,0Z"/>
    </g>
    <g>
      <path class="st0" d="M23.4,5.1c0-.6-.5-1.1-1.1-1.1-.6,0-1.1.5-1.1,1.1,0,.6.5,1.1,1.1,1.1.6,0,1.1-.5,1.1-1.1Z"/>
      <path class="st4" d="M23.5,5.1c0,.7-.5,1.2-1.2,1.2-.7,0-1.2-.5-1.2-1.2,0-.7.5-1.2,1.2-1.2.7,0,1.2.5,1.2,1.2,0,.7,0-.7,0,0ZM21.4,5.1c0,.5.4.9.9.9.5,0,.9-.4.9-.9,0-.5-.4-.9-.9-.9-.5,0-.9.4-.9.9,0,.5,0-.5,0,0Z"/>
    </g>
  </g>
  <g>
    <path class="st2" d="M5.5,10.9c0,3,2.5,5.6,5.6,5.6,3.1,0,5.6-2.5,5.6-5.6"/>
    <g>
      <path class="st0" d="M4.4,11c0-.6.5-1.1,1.1-1.1.6,0,1.1.5,1.1,1.1,0,.6-.5,1.1-1.1,1.1s-1.1-.5-1.1-1.1Z"/>
      <path class="st4" d="M4.2,11c0,.7.6,1.2,1.2,1.2s1.2-.6,1.2-1.2c0-.7-.6-1.2-1.2-1.2s-1.2.6-1.2,1.2c0,.7,0-.7,0,0ZM6.4,10.9c0,.5-.4.9-.9.9-.5,0-.9-.4-.9-.9s.4-.9.9-.9c.5,0,.9.4.9.9,0,.5,0-.5,0,0Z"/>
    </g>
    <g>
      <path class="st0" d="M17.7,10.9c0-.6-.5-1.1-1.1-1.1-.6,0-1.1.5-1.1,1.1s.5,1.1,1.1,1.1c.6,0,1.1-.5,1.1-1.1Z"/>
      <path class="st4" d="M17.9,10.9c0,.7-.5,1.2-1.2,1.2-.7,0-1.2-.5-1.2-1.2,0-.7.5-1.2,1.2-1.2.7,0,1.2.5,1.2,1.2,0,.7,0-.7,0,0ZM15.7,10.9c0,.5.4.9.9.9.5,0,.9-.4.9-.9,0-.5-.4-.9-.9-.9-.5,0-.9.4-.9.9,0,.5,0-.5,0,0Z"/>
    </g>
  </g>
  <line class="st1" x1="11" y1="16.8" x2="11" y2="21"/>
</svg>