<?xml version="1.0" encoding="UTF-8"?>
<svg id="_レイヤー_1" data-name="レイヤー_1" xmlns="http://www.w3.org/2000/svg" version="1.1" viewBox="0 0 148.8607595 24">
  <!-- Generator: Adobe Illustrator 29.4.0, SVG Export Plug-In . SVG Version: 2.1.0 Build 152)  -->
  <defs>
    <style>
      .st0 {
        fill: #fff;
      }

      .st1 {
        stroke-width: 2.857502px;
      }

      .st1, .st2 {
        fill: none;
        stroke: #e3a827;
        stroke-linecap: round;
        stroke-linejoin: round;
      }

      .st3 {
        fill: #286699;
      }

      .st4 {
        fill: #e3a827;
      }

      .st2 {
        stroke-width: 2.4430602px;
      }
    </style>
  </defs>
  <g>
    <path class="st3" d="M26.0872278,18.8438664V5.2169133c0-.5332031.2255859-.7382812.7387695-.7382812h4.0634766c4.0224609,0,6.1362305,1.8056641,6.1362305,5.2539062,0,3.4472656-2.1137695,5.2539062-6.1362305,5.2539062h-1.9702148v3.8574219c0,.5136719-.2050781.7392578-.7182617.7392578h-1.375c-.5131836,0-.7387695-.2050781-.7387695-.7392578ZM30.9715051,12.4825383c2.0727539,0,3.0991211-.9238281,3.0991211-2.75,0-1.8066406-1.0263672-2.7509766-3.0991211-2.7509766h-2.0522461v5.5009766h2.0522461Z"/>
    <path class="st3" d="M38.6033411,18.8438664V5.2169133c0-.5332031.2260742-.7382812.7387695-.7382812h1.2724609c.5336914,0,.7387695.2050781.7387695.7382812v3.8173828c.7802734-.5947266,1.9291992-1.0058594,3.1196289-1.0058594,2.6064453,0,3.8789062,1.5185547,3.8789062,4.6386719v6.1767578c0,.5341797-.2050781.7392578-.7387695.7392578h-1.2724609c-.5336914,0-.7387695-.2050781-.7387695-.7392578v-5.9306641c0-1.7646484-.574707-2.5244141-1.9086914-2.5244141-.800293,0-1.7036133.3076172-2.3398438.8417969v7.6132812c0,.5341797-.2050781.7392578-.7387695.7392578h-1.2724609c-.5126953,0-.7387695-.2050781-.7387695-.7392578Z"/>
    <path class="st3" d="M49.2610559,23.1544133c-.5952148-.1845703-.7182617-.4316406-.7182617-.8623047v-.8212891c0-.4511719.1230469-.6152344.4716797-.6152344.2875977,0,.5541992.1230469,1.046875.1230469,1.2109375,0,2.175293-.6357422,3.078125-2.03125-1.7851562-2.9355469-3.7758789-8.4765625-3.7758789-10.015625,0-.4716797.2255859-.6777344.6772461-.6777344h1.2724609c.6157227,0,.8413086.2060547.9233398.6982422.472168,2.6679688,1.5185547,5.5615234,2.4833984,7.6347656.9848633-2.0322266,1.9702148-4.9052734,2.4833984-7.6347656.0820312-.5126953.328125-.6982422.9233398-.6982422h1.1904297c.4516602,0,.6772461.2060547.6772461.6777344,0,1.4775391-1.847168,6.6494141-3.550293,9.7070312-1.7241211,2.9970703-3.3457031,4.6796875-5.8901367,4.6796875-.5336914,0-.9443359-.0410156-1.2929688-.1640625Z"/>
    <path class="st3" d="M61.2644739,16.4844914V5.2169133c0-.5332031.2260742-.7382812.7387695-.7382812h1.2724609c.5336914,0,.7387695.2050781.7387695.7382812v10.9794922c0,.8623047.3081055,1.2314453,1.0058594,1.2314453.2460938,0,.3691406-.0410156.4926758-.0410156.3896484,0,.5332031.1845703.5332031.6367188v.7998047c0,.4726562-.2050781.6982422-.7182617.8212891-.3076172.0820312-.6977539.1025391-1.0463867.1025391-2.1137695,0-3.0170898-.9648438-3.0170898-3.2626953Z"/>
    <path class="st3" d="M66.6511926,13.9190617c0-3.9609375,1.7236328-5.890625,5.2744141-5.890625,3.550293,0,5.2949219,1.9296875,5.2949219,5.890625s-1.7446289,5.8896484-5.2949219,5.8896484c-3.5507812,0-5.2744141-1.9287109-5.2744141-5.8896484ZM74.4290247,13.9190617c0-2.5039062-.7387695-3.5302734-2.503418-3.5302734-1.7446289,0-2.4833984,1.0263672-2.4833984,3.5302734,0,2.4833984.7387695,3.5292969,2.4833984,3.5292969,1.7646484,0,2.503418-1.0458984,2.503418-3.5292969Z"/>
  </g>
  <g>
    <path class="st3" d="M80.888009,18.9717961c-1.2929688-2.6064453-3.2016602-11.4726562-3.2016602-13.8740234,0-.4511719.2460938-.65625.7387695-.65625h1.2929688c.5952148,0,.8413086.2050781.9033203.6972656.4511719,3.9404297,1.230957,7.7988281,2.0317383,11.1025391h.0615234c.9438477-3.1396484,1.9291992-7.2236328,2.5244141-11.1025391.0820312-.5126953.3076172-.6972656.9438477-.6972656h1.1083984c.6157227,0,.8618164.1845703.9233398.6972656.5952148,3.8789062,1.6010742,7.9628906,2.5244141,11.1025391h.0615234c.8208008-3.3037109,1.5800781-7.1621094,2.0522461-11.1025391.0410156-.4921875.2875977-.6972656.9033203-.6972656h1.1489258c.4926758,0,.7387695.2050781.7387695.65625,0,2.4013672-1.9086914,11.2675781-3.2011719,13.8740234-.1850586.3896484-.4311523.5742188-.9853516.5742188h-1.1289062c-.5541992,0-.800293-.1640625-1.0053711-.5742188-.9443359-2.0117188-2.0727539-6.0546875-2.6064453-9.5029297h-.0615234c-.5336914,3.4482422-1.6625977,7.4912109-2.5859375,9.5029297-.2260742.4101562-.4516602.5742188-1.0263672.5742188h-1.1494141c-.5537109,0-.800293-.1845703-1.0053711-.5742188Z"/>
    <path class="st3" d="M95.8474817,13.9844914c0-3.8994141,1.8876953-5.9931641,5.4179688-5.9931641,2.75,0,4.4741211,1.3544922,4.4741211,3.4892578,0,2.0107422-1.2724609,3.0371094-3.8378906,3.2216797l-3.222168.2255859c.1435547,1.7041016,1.0258789,2.4833984,2.9960938,2.4833984.9033203,0,1.8676758-.1845703,2.7504883-.5332031.5952148-.2460938.9848633-.1025391.9848633.4306641v.9443359c0,.4306641-.2050781.7392578-.6567383.9238281-.7592773.328125-2.2163086.5947266-3.4067383.5947266-3.7353516,0-5.5-1.8466797-5.5-5.7871094ZM100.9163293,12.8555851c1.4575195-.1025391,2.1552734-.4921875,2.1552734-1.375,0-.8623047-.6977539-1.3544922-1.847168-1.3544922-1.6010742,0-2.5039062,1.0263672-2.5654297,2.8935547l2.2573242-.1640625Z"/>
    <path class="st3" d="M106.5686731,16.4678898c0-2.5039062,2.0317383-3.6328125,6.9370117-3.6533203v-.1025391c0-1.6210938-.7797852-2.3603516-2.4628906-2.3603516-.8618164,0-1.6210938.1640625-2.5449219.4921875-.574707.2060547-.8618164.1025391-.9848633-.3896484l-.2055664-.8212891c-.1230469-.4511719-.0205078-.7382812.4311523-.9433594.8413086-.3701172,2.4833984-.6982422,3.7763672-.6982422,3.1401367,0,4.7407227,1.5800781,4.7407227,4.5976562v6.2177734c0,.5136719-.2050781.7392578-.7182617.7392578h-1.0058594c-.5126953,0-.7387695-.2255859-.7387695-.7597656v-.3076172c-.8618164.8417969-2.1342773,1.2929688-3.6118164,1.2929688-2.2783203,0-3.6123047-1.2519531-3.6123047-3.3037109ZM113.5056848,16.8165226v-2.1142578c-3.1606445.0410156-4.2075195.5136719-4.2075195,1.6835938,0,.8613281.5541992,1.3134766,1.7036133,1.3134766.8618164,0,1.8676758-.3291016,2.5039062-.8828125Z"/>
    <path class="st3" d="M121.0330286,18.9717961c-1.7856445-2.9560547-3.796875-8.5380859-3.796875-10.0771484,0-.4716797.2255859-.6777344.6772461-.6777344h1.2724609c.6157227,0,.8413086.2060547.9233398.6982422.472168,2.6679688,1.5185547,5.5615234,2.4833984,7.6347656.9848633-2.0322266,1.9702148-4.9052734,2.4829102-7.6347656.0820312-.5126953.328125-.6982422.9238281-.6982422h1.1904297c.4511719,0,.6767578.2060547.6767578.6777344,0,1.5390625-2.0107422,7.1210938-3.8173828,10.0771484-.2460938.4101562-.4921875.5742188-1.0253906.5742188h-.9443359c-.5336914,0-.800293-.1640625-1.0463867-.5742188Z"/>
    <path class="st3" d="M128.5501184,13.9844914c0-3.8994141,1.8876953-5.9931641,5.4179688-5.9931641,2.75,0,4.4736328,1.3544922,4.4736328,3.4892578,0,2.0107422-1.2714844,3.0371094-3.8369141,3.2216797l-3.2226562.2255859c.1435547,1.7041016,1.0263672,2.4833984,2.9960938,2.4833984.9033203,0,1.8681641-.1845703,2.7509766-.5332031.5947266-.2460938.984375-.1025391.984375.4306641v.9443359c0,.4306641-.2050781.7392578-.65625.9238281-.7597656.328125-2.2167969.5947266-3.4072266.5947266-3.7353516,0-5.5-1.8466797-5.5-5.7871094ZM133.6194543,12.8555851c1.4570312-.1025391,2.1552734-.4921875,2.1552734-1.375,0-.8623047-.6982422-1.3544922-1.8476562-1.3544922-1.6005859,0-2.5039062,1.0263672-2.5654297,2.8935547l2.2578125-.1640625Z"/>
    <path class="st3" d="M140.0676965,18.806757v-9.8505859c0-.5126953.2255859-.7392578.7392578-.7392578h1.0048828c.5136719,0,.71875.2060547.71875.7392578v.5126953c.8417969-.7382812,2.4423828-1.4160156,3.3457031-1.4160156.5537109,0,.7792969.2050781.7792969.7392578v1.4570312c0,.5332031-.2460938.7587891-.7587891.7587891-1.2109375,0-2.3603516-.0820312-3.0791016-.1435547v7.9423828c0,.5341797-.2050781.7392578-.7382812.7392578h-1.2724609c-.5136719,0-.7392578-.2050781-.7392578-.7392578Z"/>
  </g>
  <g>
    <path class="st1" d="M11.149743,5.0981388c.0358124,3.0412598,2.5397491,5.5843506,5.5518188,5.6029053,3.063797.0188599,5.62323-2.5088196,5.6214371-5.6029053"/>
    <g>
      <path class="st0" d="M10.0754633,5.1107884c-.0069809-.5932312.4684067-1.0799561,1.0616302-1.0869446s1.0799484.4684143,1.0869293,1.0616455c.0069885.5932159-.468399,1.0799255-1.0616302,1.0869141-.5932236.0069885-1.0799408-.468399-1.0869293-1.061615Z"/>
      <path class="st4" d="M9.9326028,5.1124668c.0078964.6710663.5604019,1.2107086,1.2314758,1.2028046s1.2107162-.5603943,1.2028122-1.2314606c-.0079041-.6710968-.5604019-1.2107239-1.2314758-1.2028351-.6710739.0079041-1.2107162.5603943-1.2028122,1.2314911.0078964.6710663-.0079041-.6710968,0,0ZM12.0811624,5.0871678c.0060501.5136871-.4067459.9363251-.9204483.9423676-.5137024.0060577-.9363327-.4067383-.9423828-.9204254-.0060501-.5137177.4067459-.9363556.9204483-.9423981.5136948-.0060425.9363327.4067383.9423828.9204559.0060501.5136871-.0060501-.5137177,0,0Z"/>
    </g>
    <g>
      <path class="st0" d="M23.397355,5.0975132c-.0003433-.593277-.4817123-1.0740814-1.0749817-1.0737457-.5932617.000351-1.0740738.48172-1.0737305,1.0749969.0003433.5932465.4817123,1.0740662,1.0749741,1.0737152.5932693-.0003357,1.0740814-.4817047,1.0737381-1.0749664Z"/>
      <path class="st4" d="M23.5402307,5.0974369c.0003891.6711121-.5454025,1.2175293-1.2165298,1.2179108-.6711197.0003967-1.2175446-.5453949-1.2179337-1.216507-.0003891-.6711426.5454025-1.2175598,1.2165298-1.2179413.6711197-.0003967,1.2175446.5453949,1.2179337,1.2165375.0003891.6711121-.0003891-.6711426,0,0ZM21.3915185,5.0986729c.0002975.5137329.4182816.9312286.9320221.9309387.5137329-.0003052.9312363-.4182892.9309387-.9320068-.0002975-.5137634-.4182816-.9312592-.9320221-.930954-.5137329.0002899-.9312363.4182739-.9309387.9320221.0002975.5137329-.0002975-.5137482,0,0Z"/>
    </g>
  </g>
  <g>
    <path class="st1" d="M5.462243,10.9434605c.0358124,3.0412598,2.5397491,5.5843506,5.5518188,5.60289,3.0637894.0188751,5.6232224-2.5088043,5.6214294-5.60289"/>
    <g>
      <path class="st0" d="M4.3879633,10.95611c-.0069885-.5932312.468399-1.0799561,1.0616302-1.0869446.5932236-.0069885,1.0799408.468399,1.0869293,1.0616455.0069809.5932159-.4684067,1.0799255-1.0616302,1.0869141s-1.0799484-.468399-1.0869293-1.061615Z"/>
      <path class="st4" d="M4.2450952,10.9577885c.0079041.6710663.5604019,1.2107086,1.2314758,1.2028046s1.2107162-.5604095,1.2028122-1.2314758c-.0078964-.6710968-.5604019-1.2107239-1.2314758-1.2028198s-1.2107162.5603943-1.2028122,1.2314911c.0079041.6710663-.0079041-.6710968,0,0ZM6.3936548,10.9324894c.0060501.5136871-.4067459.9363251-.9204483.9423676-.5137024.0060577-.9363327-.4067383-.9423828-.9204407s.4067459-.9363403.9204483-.9423828c.5137024-.0060577.9363327.4067383.9423828.9204559.0060501.5136871-.0060501-.5137177,0,0Z"/>
    </g>
    <g>
      <path class="st0" d="M17.7098474,10.9428349c-.0003433-.593277-.4817123-1.0740814-1.0749741-1.0737457-.5932693.000351-1.0740814.48172-1.0737381,1.0749817s.4817123,1.0740662,1.0749817,1.0737305c.5932617-.000351,1.0740738-.4817047,1.0737305-1.0749664Z"/>
      <path class="st4" d="M17.8527231,10.9427433c.0003891.6711121-.5454025,1.2175446-1.2165222,1.217926-.6711273.0003967-1.2175522-.5453949-1.2179413-1.216507-.0003815-.6711426.5454102-1.2175598,1.2165298-1.2179413.6711197-.0003967,1.2175446.5453949,1.2179337,1.2165222.0003891.6711121-.0003891-.6711273,0,0ZM15.7040109,10.9439946c.0002975.5137329.4182892.9312286.9320221.9309235.5137329-.0002899.9312363-.4182739.9309387-.9320068-.0002975-.5137482-.4182816-.9312439-.9320145-.9309387-.5137405.0002899-.9312439.4182739-.9309464.9320221.0002975.5137329-.0002975-.5137482,0,0Z"/>
    </g>
  </g>
  <line class="st2" x1="11.0488672" y1="16.8218953" x2="11.0488672" y2="21.0475037"/>
</svg>