<?xml version="1.0" encoding="UTF-8" standalone="no"?><!DOCTYPE svg PUBLIC "-//W3C//DTD SVG 1.1//EN" "http://www.w3.org/Graphics/SVG/1.1/DTD/svg11.dtd"><svg width="100%" height="100%" viewBox="0 0 40 20" version="1.1" xmlns="http://www.w3.org/2000/svg" xmlns:xlink="http://www.w3.org/1999/xlink" xml:space="preserve" xmlns:serif="http://www.serif.com/" style="fill-rule:evenodd;clip-rule:evenodd;stroke-linecap:round;stroke-linejoin:round;stroke-miterlimit:1.5;"><rect id="アートボード1" x="0" y="0" width="40" height="20" style="fill:none;"/><path d="M13.616,1.602l-6.029,0l0,6.81l6.039,0" style="fill:none;stroke:#286699;stroke-width:1.67px;"/><path d="M38.555,1.602l-4.055,0l0,6.81l4.062,0" style="fill:none;stroke:#286699;stroke-width:1.67px;"/><path d="M7.576,5.007l-6.029,0l0,9.986l6.039,0" style="fill:none;stroke:#286699;stroke-width:1.67px;"/><path d="M34.182,5.007l-4.364,0l0,8.334l8.745,0" style="fill:none;stroke:#286699;stroke-width:1.67px;"/><path d="M13.616,11.588l-6.029,0l0,3.405" style="fill:none;stroke:#286699;stroke-width:1.67px;"/><path d="M13.616,18.398l-6.029,0l0,-3.405" style="fill:none;stroke:#fff;stroke-width:1.67px;"/><path d="M29.817,9.174l-4.759,-0l0,4.167" style="fill:none;stroke:#286699;stroke-width:1.67px;"/><path d="M38.562,18.398l-13.503,0l0,-5.057" style="fill:none;stroke:#fff;stroke-width:1.67px;"/><path d="M21.049,10l-3.111,3.035l-0,-6.07l3.111,3.035Z" style="fill:#fff;"/></svg>