<?xml version="1.0" encoding="UTF-8" standalone="no"?>
<!DOCTYPE svg PUBLIC "-//W3C//DTD SVG 1.1//EN" "http://www.w3.org/Graphics/SVG/1.1/DTD/svg11.dtd">
<svg width="100%" height="100%" viewBox="0 0 24 24" version="1.1" xmlns="http://www.w3.org/2000/svg" xmlns:xlink="http://www.w3.org/1999/xlink" xml:space="preserve" xmlns:serif="http://www.serif.com/" style="fill-rule:evenodd;clip-rule:evenodd;stroke-linejoin:round;stroke-miterlimit:2;">
    <g transform="matrix(0.904697,-0.904697,0.904697,0.904697,-9.019113,8.862776)">
        <path d="M9.883,3.367C13.824,3.367 17.024,6.567 17.024,10.508C17.024,14.449 13.824,17.649 9.883,17.649C5.942,17.649 2.742,14.449 2.742,10.508C2.742,6.567 5.942,3.367 9.883,3.367ZM9.883,6.938C11.853,6.938 13.453,8.537 13.453,10.508C13.453,12.479 11.853,14.078 9.883,14.078C7.912,14.078 6.312,12.479 6.312,10.508C6.312,8.537 7.912,6.938 9.883,6.938Z" style="fill:rgb(255,175,0);"/>
    </g>
    <g transform="matrix(0.34919,-0.34919,0.786658,0.786658,4.05605,5.768156)">
        <path d="M7.559,21.624L-2.656,21.624L-0.102,11.408L5.006,11.408L7.559,21.624Z" style="fill:rgb(255,175,0);"/>
    </g>
</svg>
