<?xml version="1.0" encoding="UTF-8" standalone="no"?><!DOCTYPE svg PUBLIC "-//W3C//DTD SVG 1.1//EN" "http://www.w3.org/Graphics/SVG/1.1/DTD/svg11.dtd"><svg width="100%" height="100%" viewBox="0 0 20 20" version="1.1" xmlns="http://www.w3.org/2000/svg" xmlns:xlink="http://www.w3.org/1999/xlink" xml:space="preserve" xmlns:serif="http://www.serif.com/" style="fill-rule:evenodd;clip-rule:evenodd;stroke-linejoin:round;stroke-miterlimit:2;"><path d="M2.473,2.473c2.971,-2.971 7.796,-2.971 10.767,0c2.971,2.971 2.971,7.796 0,10.767c-2.971,2.971 -7.796,2.971 -10.767,-0c-2.971,-2.971 -2.971,-7.796 0,-10.767Zm2.692,2.692c1.486,-1.486 3.898,-1.486 5.384,0c1.486,1.486 1.486,3.898 0,5.384c-1.486,1.486 -3.898,1.486 -5.384,0c-1.486,-1.486 -1.486,-3.898 -0,-5.384Z" style="fill:#dba633;"/><path d="M19.755,16.782l-2.973,2.973l-5.954,-7.44l1.486,-1.486l7.44,5.954Z" style="fill:#dba633;"/></svg>