<?xml version="1.0" encoding="UTF-8"?>
<svg id="_レイヤー_1" data-name="レイヤー 1" xmlns="http://www.w3.org/2000/svg" xmlns:xlink="http://www.w3.org/1999/xlink" viewBox="0 0 24 24">
  <defs>
    <style>
      .cls-1 {
        fill: #fff;
      }

      .cls-2 {
        fill: url(#_名称未設定グラデーション_33);
      }

      .cls-3 {
        stroke: #e3a827;
        stroke-linecap: round;
        stroke-linejoin: round;
        stroke-width: 2.81px;
      }

      .cls-3, .cls-4 {
        fill: none;
      }

      .cls-4 {
        stroke: #b0d8ff;
        stroke-miterlimit: 10;
        stroke-width: .75px;
      }

      .cls-5 {
        fill: #e3a827;
      }
    </style>
    <radialGradient id="_名称未設定グラデーション_33" data-name="名称未設定グラデーション 33" cx="12" cy="12" fx="12" fy="12" r="12" gradientUnits="userSpaceOnUse">
      <stop offset="0" stop-color="#6d9abf"/>
      <stop offset="1" stop-color="#327fbf"/>
    </radialGradient>
  </defs>
  <circle class="cls-2" cx="12" cy="12" r="12"/>
  <g>
    <path class="cls-3" d="M9.71,6.52c.03,2.42,1.82,4.44,3.99,4.46,2.2.01,4.04-2,4.04-4.46"/>
    <g>
      <path class="cls-1" d="M8.66,6.53c0-.58.46-1.06,1.04-1.07.58,0,1.06.46,1.07,1.04s-.46,1.06-1.04,1.07c-.58,0-1.06-.46-1.07-1.04Z"/>
      <path class="cls-5" d="M8.52,6.53c0,.66.55,1.19,1.21,1.18.66,0,1.19-.55,1.18-1.21,0-.66-.55-1.19-1.21-1.18-.66,0-1.19.55-1.18,1.21,0,.66,0-.66,0,0ZM10.63,6.51c0,.5-.4.92-.91.92-.5,0-.92-.4-.92-.91,0-.5.4-.92.91-.92.5,0,.92.4.92.91,0,.5,0-.5,0,0Z"/>
    </g>
    <g>
      <circle class="cls-1" cx="17.74" cy="6.52" r="1.06"/>
      <path class="cls-5" d="M18.94,6.52c0,.66-.54,1.2-1.19,1.2-.66,0-1.2-.54-1.2-1.19,0-.66.54-1.2,1.19-1.2s1.2.54,1.2,1.19c0,.66,0-.66,0,0ZM16.83,6.52c0,.5.41.91.92.91s.91-.41.91-.92c0-.5-.41-.91-.92-.91s-.91.41-.91.92c0,.5,0-.5,0,0Z"/>
    </g>
  </g>
  <g>
    <path class="cls-3" d="M5.63,11.17c.03,2.42,1.82,4.44,3.99,4.46,2.2.01,4.04-2,4.04-4.46"/>
    <g>
      <path class="cls-1" d="M4.57,11.18c0-.58.46-1.06,1.04-1.07.58,0,1.06.46,1.07,1.04s-.46,1.06-1.04,1.07-1.06-.46-1.07-1.04Z"/>
      <path class="cls-5" d="M4.43,11.18c0,.66.55,1.19,1.21,1.18.66,0,1.19-.55,1.18-1.21,0-.66-.55-1.19-1.21-1.18-.66,0-1.19.55-1.18,1.21,0,.66,0-.66,0,0ZM6.54,11.16c0,.5-.4.92-.91.92-.5,0-.92-.4-.92-.91,0-.5.4-.92.91-.92s.92.4.92.91c0,.5,0-.5,0,0Z"/>
    </g>
    <g>
      <path class="cls-1" d="M14.71,11.17c0-.58-.47-1.06-1.06-1.05-.58,0-1.06.47-1.05,1.06,0,.58.47,1.06,1.06,1.05.58,0,1.06-.47,1.05-1.06Z"/>
      <path class="cls-5" d="M14.85,11.17c0,.66-.54,1.2-1.19,1.2-.66,0-1.2-.54-1.2-1.19,0-.66.54-1.2,1.19-1.2.66,0,1.2.54,1.2,1.19,0,.66,0-.66,0,0ZM12.74,11.17c0,.5.41.91.92.91.5,0,.91-.41.91-.92,0-.5-.41-.91-.92-.91-.5,0-.91.41-.91.92,0,.5,0-.5,0,0Z"/>
    </g>
  </g>
  <line class="cls-3" x1="9.64" y1="15.84" x2="9.64" y2="19.2"/>
  <circle class="cls-4" cx="12" cy="12" r="10.57"/>
</svg>